<?xml version="1.0" standalone="yes"?>
<svg xmlns="http://www.w3.org/2000/svg" width="512" height="512">
<path style="fill:#020202; stroke:none;" d="M0 0L0 512L512 512L512 0L0 0z"/>
<path style="fill:#5c9ece; stroke:none;" d="M267 29L267 30L271 30L267 29z"/>
<path style="fill:#e1d7c7; stroke:none;" d="M187 154C205.297 150.452 224.301 146.256 243 146.004C249.326 145.918 258.306 143.422 261.472 150.929C263.354 155.39 258.993 159.468 254.999 160.566C244.337 163.499 231.979 161.962 221 164C220.717 177.731 213.858 189.537 203 197.761C199.172 200.66 189.677 203.165 187.603 207.418C184.018 214.772 188.871 231.007 191.873 238C202.831 263.531 235.512 289.822 264 291.91C300.855 294.611 341.605 264.894 351.964 230C353.571 224.586 356.69 211.72 352.972 206.699C347.111 198.782 334.433 196.085 328.044 187C324.323 181.709 323.187 167.412 318.566 164.318C311.396 159.516 298.214 162.869 290.001 160.567C285.949 159.431 282.154 155.502 283.762 151.044C286.247 144.151 296.298 145.627 302 146.17C319.174 147.804 336.843 152.646 354 153C354 140.019 350.243 120.153 354.894 108C359.899 94.9189 377.47 90.4373 369.175 73C357.036 47.4812 330.635 62.8619 311.015 55.3966C305.41 53.2639 304.514 46.4002 301.362 42.0008C297.229 36.2309 290.853 32.331 284 30.6767C270.312 27.3726 254.67 30.7346 244.004 40.1852C239.273 44.3771 235.947 53.1318 229.985 55.3966C210.747 62.7042 188.255 48.7261 174.133 71C162.968 88.612 181.427 93.6841 186.397 107.004C191.064 119.512 187 140.627 187 154z"/>
<path style="fill:#5c9ece; stroke:none;" d="M277 29L277 30L280 30L277 29M262.667 30.3333L263.333 30.6667L262.667 30.3333M283.667 30.3333L284.333 30.6667L283.667 30.3333M259 31L260 32L259 31M287 31L288 32L287 31M256 32L257 33L256 32M289 32L290 33L289 32M254 33L255 34L254 33M291 33L292 34L291 33M252 34L253 35L252 34M293 34L294 35L293 34M250 35L251 36L250 35M248 36L249 37L248 36M296 36L297 37L296 36M247 37L248 38L247 37M297 37L298 38L297 37M298 38L299 39L298 38M299 39L300 40L299 39M243 40L244 41L243 40M300 40L301 41L300 40M242 41L243 42L242 41M241 42L242 43L241 42M240 43L241 44L240 43M302 43L303 44L302 43M303 45L304 46L303 45M237 47L238 48L237 47M304 47L305 48L304 47M305.333 49.6667L305.667 50.3333L305.333 49.6667M235 50L236 51L235 50M234 52L235 53L234 52M306 52L307 53L306 52M307 53L308 54L307 53M232 54L233 55L232 54M308 54L309 55L308 54M231 55L232 56L231 55M309 55L310 56L309 55M197 56L197 57L202 57L197 56M341 56L341 57L346 57L341 56M193 57L194 58L193 57M348.667 57.3333L349.333 57.6667L348.667 57.3333M190 58L191 59L190 58M352 58L353 59L352 58M187 59L188 60L187 59M355 59L356 60L355 59M185 60L186 61L185 60M357 60L358 61L357 60M358 61L359 62L358 61M182 62L183 63L182 62M267 62L267 63L272 63L267 62M360 62L361 63L360 62M265 63L263 66L265 63z"/>
<path style="fill:#020202; stroke:none;" d="M266.148 64.0278C262.359 66.2622 263.002 71.2446 263 75C262.996 84.67 260.721 97.661 263.434 106.956C264.647 111.114 269.122 112.851 272.941 110.817C276.796 108.764 276.973 104.876 276.999 101C277.068 91.0313 279.309 77.6136 276.566 68.0193C275.31 63.6246 270.149 61.6686 266.148 64.0278z"/>
<path style="fill:#5c9ece; stroke:none;" d="M361 63L362 64L361 63M179 64L180 65L179 64M178 65L179 66L178 65M177 66L178 67L177 66M276 66L277 67L276 66M176 67L177 68L176 67M262 67L262 107L263 107C263 95.5659 266.411 77.512 262 67M277 68L277 106L278 106C278 95.0894 281.211 78.0359 277 68M366 68L367 69L366 68M367 69L368 70L367 69M174 70L175 71L174 70M368 71L369 72L368 71M172 73L173 74L172 73M369 73L370 74L369 73M370 75L371 76L370 75M171 76L172 77L171 76M215.667 78.3333L216.333 78.6667L215.667 78.3333z"/>
<path style="fill:#020202; stroke:none;" d="M217.019 78.6165C212.933 79.5711 211.428 83.1847 211.094 87C210.206 97.1626 209.603 109.923 211.214 119.996C211.901 124.294 215.204 128.303 219.985 127.242C223.612 126.438 225.496 123.484 225.891 119.996C227.026 109.976 228.306 93.7174 225.566 84.0154C224.495 80.2214 220.998 77.6866 217.019 78.6165z"/>
<path style="fill:#5c9ece; stroke:none;" d="M221 78L222 79L221 78M318 78L319 79L318 78z"/>
<path style="fill:#020202; stroke:none;" d="M319.019 78.7855C314.833 80.207 314.078 84.1106 314.005 88C313.809 98.4185 312.329 110.751 314.228 120.995C314.996 125.136 318.611 128.354 322.981 127.012C332.842 123.984 330.173 94.2116 328.671 86.0038C327.837 81.451 324.144 77.0454 319.019 78.7855z"/>
<path style="fill:#5c9ece; stroke:none;" d="M323 78L324 79L323 78M371 78L371 86L372 86L371 78M316 79L317 80L316 79M325 79L326 80L325 79M170 80L170 86L171 86L170 80M315 80L316 81L315 80M327 81L328 82L327 81M211.333 82.6667L211.667 83.3333L211.333 82.6667M225 82L226 83L225 82M328.333 83.6667L328.667 84.3333L328.333 83.6667M313 84L313 121L314 121C314 110.351 317.111 93.7978 313 84M171 88L172 89L171 88M370 88L371 89L370 88M369 90L370 91L369 90M173 92L174 93L173 92M368 92L369 93L368 92M175 95L176 96L175 95M366 95L367 96L366 95M176 96L177 97L176 96M365 96L366 97L365 96M177 97L178 98L177 97M364 97L365 98L364 97M178 98L179 99L178 98M363 98L364 99L363 98M179 99L180 100L179 99M362 99L363 100L362 99M360 100L361 101L360 100M182 101L183 102L182 101M359 101L360 102L359 101M186 105L187 106L186 105M355 105L356 106L355 105M263 108L264 109L263 108M276 108L277 109L276 108M354 108L354 141C354 145.394 355.037 150.383 351 153L351 154L355 154C355 140.996 359.01 119.939 354 108M275 109L276 110L275 109M274 110L275 111L274 110M266 111L267 112L266 111M272 111L273 112L272 111M328.333 121.667L328.667 122.333L328.333 121.667M211 122L212 123L211 122M225 123L226 124L225 123M314 123L315 124L314 123M212 124L213 125L212 124M327 124L328 125L327 124M326 125L327 126L326 125M214 126L215 127L214 126M222 126L223 127L222 126M325 126L326 127L325 126M216 127L217 128L216 127M220 127L221 128L220 127M318.667 127.333L319.333 127.667L318.667 127.333M322.667 127.333L323.333 127.667L322.667 127.333M251 145L251 146L256 146L251 145M290 145L291 146L290 145M236 146L236 147L241 147L236 146M258 146L259 147L258 146M287 146L288 147L287 146M301 146L301 147L305 147L301 146M226 147L226 148L230 148L226 147M285 147L286 148L285 147M311 147L311 148L315 148L311 147M218 148L218 149L221 149L218 148M284 148L285 149L284 148M320 148L320 149L323 149L320 148M211 149L211 150L214 150L211 149M261 149L262 150L261 149M328 149L328 150L331 150L328 149M205 150L205 151L208 151L205 150M283 150L284 151L283 150M334 150L334 151L337 151L334 150M199 151L199 152L202 152L199 151M340 151L340 152L343 152L340 151M194.667 152.333L195.333 152.667L194.667 152.333M346.667 152.333L347.333 152.667L346.667 152.333M189.667 153.333L190.333 153.667L189.667 153.333z"/>
<path style="fill:#f7972c; stroke:none;" d="M262 153L263 154L262 153z"/>
<path style="fill:#5c9ece; stroke:none;" d="M283 155L284 156L283 155M261 156L262 157L261 156z"/>
<path style="fill:#f7972c; stroke:none;" d="M283 156L284 157L283 156z"/>
<path style="fill:#5c9ece; stroke:none;" d="M284 157L285 158L284 157M258 159L259 160L258 159M286 159L287 160L286 159M255.667 160.333L256.333 160.667L255.667 160.333M288 160L289 161L288 160M239 161L239 162L243 162L239 161z"/>
<path style="fill:#f7972c; stroke:none;" d="M243.667 161.333L244.333 161.667L243.667 161.333M297.667 161.333L298.333 161.667L297.667 161.333z"/>
<path style="fill:#5c9ece; stroke:none;" d="M299 161L299 162L302 162L299 161M229 162L229 163L232 163L229 162z"/>
<path style="fill:#f7972c; stroke:none;" d="M232 162L233 163L232 162M308 162L309 163L308 162z"/>
<path style="fill:#5c9ece; stroke:none;" d="M309 162L309 163L312 163L309 162M221.667 163.333L222.333 163.667L221.667 163.333z"/>
<path style="fill:#f7972c; stroke:none;" d="M223 163L224 164L223 163M317 163L318 164L317 163z"/>
<path style="fill:#5c9ece; stroke:none;" d="M318.667 163.333L319.333 163.667L318.667 163.333z"/>
<path style="fill:#f7972c; stroke:none;" d="M320.333 164.667L320.667 165.333L320.333 164.667z"/>
<path style="fill:#5c9ece; stroke:none;" d="M187 189C198.381 186.326 203.083 176.275 206 166L188.028 170.589L187 189M336 166C337.55 176.496 344.206 186.464 355 189L353.972 170.738L336 166M450 166L450 167L483 167L450 166M445.667 167.333L446.333 167.667L445.667 167.333z"/>
<path style="fill:#e1d7c7; stroke:none;" d="M447 167.533C431.094 171.406 437 201.682 437 214C437 224.651 433.167 244.722 438.858 253.985C445.735 265.178 475.909 262.605 487 259.566C502.468 255.328 497 224.909 497 213C497 201.562 500.424 183.111 493.992 173.044C487.685 163.173 457.297 165.026 447 167.533z"/>
<path style="fill:#5c9ece; stroke:none;" d="M486.667 167.333L487.333 167.667L486.667 167.333M220.333 168.667L220.667 169.333L220.333 168.667M443 168L444 169L443 168M489 168L490 169L489 168z"/>
<path style="fill:#f7972c; stroke:none;" d="M220 170L221 171L220 170z"/>
<path style="fill:#5c9ece; stroke:none;" d="M492 170L493 171L492 170M321 171L322 172L321 171z"/>
<path style="fill:#f7972c; stroke:none;" d="M321 172L322 173L321 172z"/>
<path style="fill:#5c9ece; stroke:none;" d="M438 173L439 174L438 173M494 173L495 174L494 173M219 174L220 175L219 174z"/>
<path style="fill:#f7972c; stroke:none;" d="M219 175L220 176L219 175z"/>
<path style="fill:#5c9ece; stroke:none;" d="M322 175L323 176L322 175M437 175L438 176L437 175M495 175L496 176L495 175z"/>
<path style="fill:#f7972c; stroke:none;" d="M322 176L323 177L322 176z"/>
<path style="fill:#5c9ece; stroke:none;" d="M218 177L219 178L218 177M496 177L496 181L497 181L496 177M323 178L324 179L323 178M436 178L436 249L437 249L437 200L436 178M217 180L218 181L217 180z"/>
<path style="fill:#f7972c; stroke:none;" d="M324 181L325 182L324 181z"/>
<path style="fill:#5c9ece; stroke:none;" d="M216 182L217 183L216 182z"/>
<path style="fill:#f7972c; stroke:none;" d="M325 183L326 184L325 183M215 184L216 185L215 184M230 186L231 187L230 186z"/>
<path style="fill:#5c9ece; stroke:none;" d="M231 186L232 187L231 186z"/>
<path style="fill:#020202; stroke:none;" d="M232 186.465C225.43 187.649 210.318 197.601 222.109 203.667C227.531 206.456 234.114 200.674 240 201.098C244.397 201.415 248.611 205.139 252.985 204.319C259.581 203.083 260.347 194.708 255.772 190.8C249.79 185.691 239.396 185.13 232 186.465z"/>
<path style="fill:#5c9ece; stroke:none;" d="M245 186L246 187L245 186z"/>
<path style="fill:#f7972c; stroke:none;" d="M246 186L247 187L246 186M291 186L292 187L291 186z"/>
<path style="fill:#5c9ece; stroke:none;" d="M292 186L293 187L292 186z"/>
<path style="fill:#020202; stroke:none;" d="M293 186.465C286.524 187.64 271.496 197.692 283.109 203.667C288.644 206.515 295.833 200.492 302 201.109C306.091 201.518 309.838 204.89 313.995 204.239C320.794 203.174 321.376 194.581 316.772 190.649C310.899 185.633 300.233 185.151 293 186.465z"/>
<path style="fill:#5c9ece; stroke:none;" d="M306.667 186.333L307.333 186.667L306.667 186.333M327 186L328 187L327 186M213 187L214 188L213 187M227 187L228 188L227 187M249 187L250 188L249 187M288 187L289 188L288 187M310 187L311 188L310 187z"/>
<path style="fill:#f7972c; stroke:none;" d="M311 187L312 188L311 187M224 188L225 189L224 188M252 188L253 189L252 188M285 188L286 189L285 188z"/>
<path style="fill:#5c9ece; stroke:none;" d="M313 188L314 189L313 188z"/>
<path style="fill:#f7972c; stroke:none;" d="M254 189L255 190L254 189z"/>
<path style="fill:#5c9ece; stroke:none;" d="M284 189L285 190L284 189M315 189L316 190L315 189z"/>
<path style="fill:#f7972c; stroke:none;" d="M329 189L330 190L329 189z"/>
<path style="fill:#5c9ece; stroke:none;" d="M221 190L222 191L221 190M255 190L256 191L255 190z"/>
<path style="fill:#f7972c; stroke:none;" d="M282 190L283 191L282 190z"/>
<path style="fill:#5c9ece; stroke:none;" d="M330 190L331 191L330 190z"/>
<path style="fill:#f7972c; stroke:none;" d="M210 191L211 192L210 191z"/>
<path style="fill:#5c9ece; stroke:none;" d="M220 191L221 192L220 191M281 191L282 192L281 191M331 191L332 192L331 191z"/>
<path style="fill:#f7972c; stroke:none;" d="M209 192L210 193L209 192z"/>
<path style="fill:#5c9ece; stroke:none;" d="M219 192L220 193L219 192M280 192L281 193L280 192z"/>
<path style="fill:#f7972c; stroke:none;" d="M208 193L209 194L208 193M218 193L219 194L218 193z"/>
<path style="fill:#5c9ece; stroke:none;" d="M258 193L259 194L258 193M319 193L320 194L319 193M333 193L334 194L333 193z"/>
<path style="fill:#f7972c; stroke:none;" d="M207 194L208 195L207 194z"/>
<path style="fill:#5c9ece; stroke:none;" d="M279 194L280 195L279 194M334 194L335 195L334 194M320 195L320 199L321 199L320 195M335 195L336 196L335 195z"/>
<path style="fill:#f7972c; stroke:none;" d="M217 196L217 199L218 199L217 196M259 196L260 197L259 196M336 196L337 197L336 196z"/>
<path style="fill:#5c9ece; stroke:none;" d="M203 197L204 198L203 197M259 197L260 198L259 197z"/>
<path style="fill:#f7972c; stroke:none;" d="M202 198L203 199L202 198M259 198L260 199L259 198z"/>
<path style="fill:#5c9ece; stroke:none;" d="M339 198L340 199L339 198z"/>
<path style="fill:#f7972c; stroke:none;" d="M320 199L321 200L320 199M199 200L200 201L199 200z"/>
<path style="fill:#5c9ece; stroke:none;" d="M218 200L219 201L218 200M258 200L259 201L258 200M279 200L280 201L279 200M197 201L198 202L197 201M233 201L234 202L233 201z"/>
<path style="fill:#f7972c; stroke:none;" d="M234 201L235 202L234 201M242 201L243 202L242 201z"/>
<path style="fill:#5c9ece; stroke:none;" d="M243 201L244 202L243 201M294 201L295 202L294 201z"/>
<path style="fill:#f7972c; stroke:none;" d="M295 201L296 202L295 201M304 201L305 202L304 201z"/>
<path style="fill:#5c9ece; stroke:none;" d="M305 201L306 202L305 201z"/>
<path style="fill:#f7972c; stroke:none;" d="M319 201L320 202L319 201M343 201L344 202L343 201z"/>
<path style="fill:#5c9ece; stroke:none;" d="M195 202L196 203L195 202z"/>
<path style="fill:#f7972c; stroke:none;" d="M219 202L220 203L219 202z"/>
<path style="fill:#5c9ece; stroke:none;" d="M246 202L247 203L246 202z"/>
<path style="fill:#f7972c; stroke:none;" d="M257 202L258 203L257 202z"/>
<path style="fill:#5c9ece; stroke:none;" d="M307 202L308 203L307 202M318 202L319 203L318 202z"/>
<path style="fill:#f7972c; stroke:none;" d="M345 202L346 203L345 202z"/>
<path style="fill:#5c9ece; stroke:none;" d="M193 203L194 204L193 203M229 203L230 204L229 203M247 203L248 204L247 203z"/>
<path style="fill:#f7972c; stroke:none;" d="M256 203L257 204L256 203z"/>
<path style="fill:#5c9ece; stroke:none;" d="M290 203L291 204L290 203z"/>
<path style="fill:#f7972c; stroke:none;" d="M308 203L309 204L308 203M317 203L318 204L317 203M347 203L348 204L347 203M191 204L192 205L191 204M222 204L223 205L222 204z"/>
<path style="fill:#5c9ece; stroke:none;" d="M223 204L224 205L223 204M227 204L228 205L227 204M249 204L250 205L249 204M253 204L254 205L253 204z"/>
<path style="fill:#f7972c; stroke:none;" d="M254 204L255 205L254 204M283 204L284 205L283 204z"/>
<path style="fill:#5c9ece; stroke:none;" d="M284 204L285 205L284 204M288 204L289 205L288 204z"/>
<path style="fill:#f7972c; stroke:none;" d="M310 204L311 205L310 204z"/>
<path style="fill:#5c9ece; stroke:none;" d="M311 204L312 205L311 204M314.667 204.333L315.333 204.667L314.667 204.333z"/>
<path style="fill:#f7972c; stroke:none;" d="M349 204L350 205L349 204z"/>
<path style="fill:#5c9ece; stroke:none;" d="M350 204L351 205L350 204M188 205L189 206L188 205z"/>
<path style="fill:#f7972c; stroke:none;" d="M352 205L353 206L352 205M354 206L354 218L355 218L354 206M187 217L187 221L188 221L187 217z"/>
<path style="fill:#5c9ece; stroke:none;" d="M187 221L187 224L188 224L187 221z"/>
<path style="fill:#f7972c; stroke:none;" d="M353.333 223.667L353.667 224.333L353.333 223.667M188 227L189 228L188 227z"/>
<path style="fill:#5c9ece; stroke:none;" d="M188 228L189 229L188 228z"/>
<path style="fill:#f7972c; stroke:none;" d="M352 228L353 229L352 228z"/>
<path style="fill:#5c9ece; stroke:none;" d="M189 231L190 232L189 231z"/>
<path style="fill:#f7972c; stroke:none;" d="M351 231L352 232L351 231z"/>
<path style="fill:#5c9ece; stroke:none;" d="M190 234L191 235L190 234z"/>
<path style="fill:#f7972c; stroke:none;" d="M350 234L351 235L350 234z"/>
<path style="fill:#5c9ece; stroke:none;" d="M191 237L192 238L191 237z"/>
<path style="fill:#f7972c; stroke:none;" d="M349 237L350 238L349 237z"/>
<path style="fill:#5c9ece; stroke:none;" d="M192 239L193 240L192 239z"/>
<path style="fill:#f7972c; stroke:none;" d="M348 239L349 240L348 239z"/>
<path style="fill:#5c9ece; stroke:none;" d="M193 241L194 242L193 241z"/>
<path style="fill:#f7972c; stroke:none;" d="M347 241L348 242L347 241z"/>
<path style="fill:#5c9ece; stroke:none;" d="M194 243L195 244L194 243z"/>
<path style="fill:#f7972c; stroke:none;" d="M346 243L347 244L346 243M345 245L346 246L345 245M196 246L197 247L196 246M344 246L345 247L344 246z"/>
<path style="fill:#5c9ece; stroke:none;" d="M496 247L496 250L497 250L496 247z"/>
<path style="fill:#f7972c; stroke:none;" d="M343 248L344 249L343 248M198 249L199 250L198 249M341 251L342 252L341 251z"/>
<path style="fill:#5c9ece; stroke:none;" d="M437 251L438 252L437 251M200 252L201 253L200 252z"/>
<path style="fill:#f7972c; stroke:none;" d="M340 252L341 253L340 252z"/>
<path style="fill:#5c9ece; stroke:none;" d="M495 252L496 253L495 252M201 253L202 254L201 253M494 254L495 255L494 254z"/>
<path style="fill:#f7972c; stroke:none;" d="M338 255L339 256L338 255z"/>
<path style="fill:#5c9ece; stroke:none;" d="M439 255L440 256L439 255M493 255L494 256L493 255z"/>
<path style="fill:#f7972c; stroke:none;" d="M337 256L338 257L337 256z"/>
<path style="fill:#5c9ece; stroke:none;" d="M440 256L441 257L440 256M492 256L493 257L492 256z"/>
<path style="fill:#f7972c; stroke:none;" d="M336 257L337 258L336 257z"/>
<path style="fill:#5c9ece; stroke:none;" d="M441 257L442 258L441 257M491 257L492 258L491 257M205 258L206 259L205 258M490 258L491 259L490 258M206 259L207 260L206 259M444 259L445 260L444 259M488 259L489 260L488 259M207 260L208 261L207 260M447.667 260.333L448.333 260.667L447.667 260.333M471 260L471 261L486 261L471 260M208 261L209 262L208 261M209 262L210 263L209 262M332 262L333 263L332 262M210 263L211 264L210 263M331 263L332 264L331 263M211 264L212 265L211 264M212 265L213 266L212 265z"/>
<path style="fill:#f7972c; stroke:none;" d="M326 267L327 268L326 267M325 268L326 269L325 268M217 269L218 270L217 269M324 269L325 270L324 269z"/>
<path style="fill:#5c9ece; stroke:none;" d="M218 270L219 271L218 270z"/>
<path style="fill:#f7972c; stroke:none;" d="M323 270L324 271L323 270M320 272L321 273L320 272z"/>
<path style="fill:#5c9ece; stroke:none;" d="M222 273L223 274L222 273z"/>
<path style="fill:#f7972c; stroke:none;" d="M319 273L320 274L319 273M317 274L318 275L317 274M225 275L226 276L225 275M316 275L317 276L316 275z"/>
<path style="fill:#5c9ece; stroke:none;" d="M226 276L227 277L226 276z"/>
<path style="fill:#f7972c; stroke:none;" d="M314 276L315 277L314 276z"/>
<path style="fill:#5c9ece; stroke:none;" d="M228 277L229 278L228 277z"/>
<path style="fill:#f7972c; stroke:none;" d="M313 277L314 278L313 277M311 278L312 279L311 278z"/>
<path style="fill:#5c9ece; stroke:none;" d="M231 279L232 280L231 279z"/>
<path style="fill:#f7972c; stroke:none;" d="M309 279L310 280L309 279M233 280L234 281L233 280M308 280L309 281L308 280M306 281L307 282L306 281z"/>
<path style="fill:#5c9ece; stroke:none;" d="M236 282L237 283L236 282z"/>
<path style="fill:#f7972c; stroke:none;" d="M304 282L305 283L304 282z"/>
<path style="fill:#5c9ece; stroke:none;" d="M238 283L239 284L238 283z"/>
<path style="fill:#f7972c; stroke:none;" d="M302 283L303 284L302 283z"/>
<path style="fill:#5c9ece; stroke:none;" d="M240 284L241 285L240 284z"/>
<path style="fill:#f7972c; stroke:none;" d="M300 284L301 285L300 284z"/>
<path style="fill:#5c9ece; stroke:none;" d="M242 285L243 286L242 285z"/>
<path style="fill:#f7972c; stroke:none;" d="M297.667 285.333L298.333 285.667L297.667 285.333z"/>
<path style="fill:#5c9ece; stroke:none;" d="M244 286L245 287L244 286z"/>
<path style="fill:#f7972c; stroke:none;" d="M245 286L246 287L245 286M295 286L296 287L295 286z"/>
<path style="fill:#5c9ece; stroke:none;" d="M247 287L248 288L247 287z"/>
<path style="fill:#f7972c; stroke:none;" d="M292.667 287.333L293.333 287.667L292.667 287.333z"/>
<path style="fill:#5c9ece; stroke:none;" d="M249 288L250 289L249 288z"/>
<path style="fill:#f7972c; stroke:none;" d="M250 288L251 289L250 288M289.667 288.333L290.333 288.667L289.667 288.333z"/>
<path style="fill:#5c9ece; stroke:none;" d="M252 289L253 290L252 289z"/>
<path style="fill:#f7972c; stroke:none;" d="M286.667 289.333L287.333 289.667L286.667 289.333z"/>
<path style="fill:#5c9ece; stroke:none;" d="M255 290L256 291L255 290z"/>
<path style="fill:#f7972c; stroke:none;" d="M256 290L257 291L256 290M282.667 290.333L283.333 290.667L282.667 290.333z"/>
<path style="fill:#5c9ece; stroke:none;" d="M259 291L260 292L259 291z"/>
<path style="fill:#f7972c; stroke:none;" d="M260 291L261 292L260 291M277.667 291.333L278.333 291.667L277.667 291.333z"/>
<path style="fill:#020202; stroke:none;" d="M327 301L327 302C305.887 322.664 270.332 324.469 243 317.625C233.505 315.248 217.96 310.458 215 300C217.604 298.011 220.527 293.458 224.015 293.302C228.309 293.111 234.148 297.928 238 299.691C246.963 303.796 257.106 307.1 267 307.816C285.08 309.122 299.73 298.842 315.985 293.677C320.66 292.192 324.156 298.098 327 301z"/>
<path style="fill:#5c9ece; stroke:none;" d="M264 292L264 293L267 293L264 292z"/>
<path style="fill:#f7972c; stroke:none;" d="M267 292L267 293L272 293L267 292M222 293L220 296L222 293z"/>
<path style="fill:#e1d7c7; stroke:none;" d="M215 301C233.696 326.975 281.763 322.534 308 314L295 304.693L279 307.385L256 306.575L225.001 294.284L215 301z"/>
<path style="fill:#f7972c; stroke:none;" d="M224 293L225 294L224 293M294 303L294 304C308.106 313.644 313.735 314.659 327 302C316.958 287.755 307.191 299.947 294 303M226 294L227 295L226 294M228 295L229 296L228 295M230 296L231 297L230 296M232 297L233 298L232 297z"/>
<path style="fill:#5c9ece; stroke:none;" d="M234 298L235 299L234 298z"/>
<path style="fill:#f7972c; stroke:none;" d="M217 299L218 300L217 299M236 299L237 300L236 299M238 300L239 301L238 300M240 301L241 302L240 301M215 302L216 303L215 302M243 302L244 303L243 302M216 303L217 304L216 303M245 303L246 304L245 303M217 304L218 305L217 304M248 304L249 305L248 304z"/>
<path style="fill:#5c9ece; stroke:none;" d="M249 304L250 305L249 304z"/>
<path style="fill:#f7972c; stroke:none;" d="M291 304L292 305L291 304M218 305L219 306L218 305M251.667 305.333L252.333 305.667L251.667 305.333M287.667 305.333L288.333 305.667L287.667 305.333M255.667 306.333L256.333 306.667L255.667 306.333M282.667 306.333L283.333 306.667L282.667 306.333M221 307L222 308L221 307M260 307L260 308L263 308L260 307z"/>
<path style="fill:#5c9ece; stroke:none;" d="M275 307L276 308L275 307z"/>
<path style="fill:#f7972c; stroke:none;" d="M276 307L276 308L279 308L276 307M222 308L223 309L222 308z"/>
<path style="fill:#5c9ece; stroke:none;" d="M195.667 309.333L196.333 309.667L195.667 309.333z"/>
<path style="fill:#f7972c; stroke:none;" d="M224 309L225 310L224 309z"/>
<path style="fill:#5c9ece; stroke:none;" d="M182 310L182 311L188 311L182 310z"/>
<path style="fill:#e1d7c7; stroke:none;" d="M178 311L178 343L197 343L197 310L178 311z"/>
<path style="fill:#5c9ece; stroke:none;" d="M345 310L345 359L365 359L365 311L364 311L364 358L346 358C346 344.474 350.209 322.414 345 310z"/>
<path style="fill:#e1d7c7; stroke:none;" d="M346 310L346 358L364 358L364 311L346 310z"/>
<path style="fill:#5c9ece; stroke:none;" d="M352 310L352 311L359 311L352 310M177 311L177 343L178 343L177 311z"/>
<path style="fill:#f7972c; stroke:none;" d="M227 311L228 312L227 311M229 312L230 313L229 312M232 313L233 314L232 313z"/>
<path style="fill:#5c9ece; stroke:none;" d="M122 343L162 343L162 314C146.476 317.591 127.226 326.632 122 343z"/>
<path style="fill:#f7972c; stroke:none;" d="M234 314L235 315L234 314M306 314L307 315L306 314z"/>
<path style="fill:#5c9ece; stroke:none;" d="M380 314L380.318 357.91L391.648 373L397.919 404L403.247 435L406.175 448.397L427 450C427 436.183 425.795 421.747 427.171 408C427.81 401.604 432.716 395.13 432.404 389C430.633 354.229 414.394 323.764 380 314z"/>
<path style="fill:#f7972c; stroke:none;" d="M237 315L238 316L237 315M303 315L304 316L303 315z"/>
<path style="fill:#5c9ece; stroke:none;" d="M304 315L305 316L304 315z"/>
<path style="fill:#f7972c; stroke:none;" d="M240.667 316.333L241.333 316.667L240.667 316.333M300 316L301 317L300 316M244 317L245 318L244 317M296.667 317.333L297.333 317.667L296.667 317.333M248.667 318.333L249.333 318.667L248.667 318.333M291.667 318.333L292.333 318.667L291.667 318.333M254 319L254 320L257 320L254 319M284 319L284 320L287 320L284 319z"/>
<path style="fill:#5c9ece; stroke:none;" d="M287 319L288 320L287 319M212 320L212 343L274 343.468L295.209 358.397L330 359L330 320C320.434 323.62 312.101 329.152 302 331.845C270.684 340.195 240.152 334.983 212 320z"/>
<path style="fill:#f7972c; stroke:none;" d="M264 320L264 321L277 321L264 320z"/>
<path style="fill:#5c9ece; stroke:none;" d="M277 320L278 321L277 320z"/>
<path style="fill:#020202; stroke:none;" d="M38 358L40 379C34.3416 379 26.1705 380.482 21.0154 377.821C13.3558 373.867 13.3557 363.133 21.0154 359.179C25.7223 356.749 32.8463 358 38 358z"/>
<path style="fill:#f7972c; stroke:none;" d="M23 358L23 359L37 361C38.7694 356.306 26.0074 358 23 358z"/>
<path style="fill:#020202; stroke:none;" d="M55.2785 358.603C65.265 353.951 85.9554 358 97 358L198 358L229 358C232.328 358 238.615 356.825 241.397 359.028C246.674 363.207 240.667 378.195 238.796 383C230.018 405.547 214.034 425.007 192 435.726C182.366 440.413 168.5 438 158 438C142.705 438 122.73 441.397 108 437.211C96.882 434.052 85.9346 425.079 78.0147 416.999C66.7672 405.524 58.2692 390.629 54.375 375C53.3339 370.822 49.9283 361.096 55.2785 358.603z"/>
<path style="fill:#f7972c; stroke:none;" d="M55.3179 359.028C51.2641 361.733 53.3383 369.182 54.2361 373C57.2937 386.003 63.4968 398.475 71.6651 409C80.7151 420.661 95.0865 434.048 110 437.471C121.088 440.015 134.642 438 146 438C155.709 438 168.572 440.368 177 434.779C195.389 422.584 210.23 402.16 216.562 381C217.914 376.482 223.394 361.561 217.566 358.603C210.656 355.096 195.729 358 188 358L116 358L72 358C67.4974 358 59.2128 356.429 55.3179 359.028M258 358L258 369L259 369L259 359L273 359L258 358M20 359L17 363L20 359z"/>
<path style="fill:#e1d7c7; stroke:none;" d="M39 378L37 359C32.2275 359 25.3608 357.759 21.0193 360.028C14.4292 363.472 14.4293 373.528 21.0193 376.972C25.8002 379.471 33.7295 378 39 378M259 359L257 378C262.346 378 270.107 379.407 274.956 376.821C281.429 373.368 281.429 363.632 274.956 360.179C270.55 357.829 263.844 359 259 359z"/>
<path style="fill:#f7972c; stroke:none;" d="M274 359L275 360L274 359M276 360L277 361L276 360M277 361L278 362L277 361M278 362L279 363L278 362M279 364L280 365L279 364M15 366L15 371L16 371L15 366M37 367L37 371L38 371L37 367z"/>
<path style="fill:#5c9ece; stroke:none;" d="M280 367L281 368L280 367z"/>
<path style="fill:#f7972c; stroke:none;" d="M280 368L281 369L280 368M279 372L280 373L279 372M257 373L258 374L257 373z"/>
<path style="fill:#5c9ece; stroke:none;" d="M296 373L296 374L353 374L335 373L296 373z"/>
<path style="fill:#f7972c; stroke:none;" d="M17 374L18 375L17 374M38 374L39 375L38 374M278 374L279 375L278 374z"/>
<path style="fill:#e1d7c7; stroke:none;" d="M295 374C292.21 385.044 282.573 393.682 271 393.985C265.664 394.125 256.033 392.067 251.39 395.028C246.559 398.108 243.652 407.273 240.481 412C234.165 421.415 226.017 430.13 217 437L217 438C223.833 438 231.649 436.914 238 439.92C243.451 442.5 246.836 449.377 253.039 449.941C297.864 454.023 344.967 450 390 450L380.803 395L375.431 375.742L354 374L295 374z"/>
<path style="fill:#5c9ece; stroke:none;" d="M374 374L375 375L374 374z"/>
<path style="fill:#f7972c; stroke:none;" d="M18 375L19 376L18 375M277 375L278 376L277 375M19 376L20 377L19 376M276 376L277 377L276 376z"/>
<path style="fill:#5c9ece; stroke:none;" d="M294 376L295 377L294 376M376 376L377 377L376 376z"/>
<path style="fill:#f7972c; stroke:none;" d="M20 377L21 378L20 377M256 377L273 379L273 378L256 377M274 377L275 378L274 377z"/>
<path style="fill:#5c9ece; stroke:none;" d="M377 377L378 378L377 377z"/>
<path style="fill:#f7972c; stroke:none;" d="M23 378L23 379L40 379L23 378z"/>
<path style="fill:#5c9ece; stroke:none;" d="M293 379L294 380L293 379M378.333 380.667L378.667 381.333L378.333 380.667M291 382L292 383L291 382M289 385L290 386L289 385M379 385L379 388L380 388L379 385M288 386L289 387L288 386M287 387L288 388L287 387M283 390L284 391L283 390M281 391L282 392L281 391M380 391L380 394L381 394L380 391M278.667 392.333L279.333 392.667L278.667 392.333M275.667 393.333L276.333 393.667L275.667 393.333M250 394L251 395L250 394M249 396L250 397L249 396M381.333 397.667L381.667 398.333L381.333 397.667M449 397L450 398L449 397z"/>
<path style="fill:#f7972c; stroke:none;" d="M450 397L451 398L450 397z"/>
<path style="fill:#e1d7c7; stroke:none;" d="M451.004 397.533C439.022 400.486 443 419.728 443 429C443 439.157 438.836 461.402 444.742 469.891C449.204 476.304 465.189 475.043 472 473.471C489.763 469.372 490 452.678 490 438C490 429.726 491.443 419.87 488.437 412C483.083 397.987 464.237 394.273 451.004 397.533z"/>
<path style="fill:#f7972c; stroke:none;" d="M469.667 397.333L470.333 397.667L469.667 397.333z"/>
<path style="fill:#5c9ece; stroke:none;" d="M248 398L249 399L248 398M447 398L448 399L447 398z"/>
<path style="fill:#f7972c; stroke:none;" d="M474 398L475 399L474 398M476 399L477 400L476 399z"/>
<path style="fill:#5c9ece; stroke:none;" d="M247 400L248 401L247 400z"/>
<path style="fill:#f7972c; stroke:none;" d="M478 400L479 401L478 400z"/>
<path style="fill:#5c9ece; stroke:none;" d="M444 401L445 402L444 401z"/>
<path style="fill:#f7972c; stroke:none;" d="M480 401L481 402L480 401z"/>
<path style="fill:#5c9ece; stroke:none;" d="M246 402L247 403L246 402M382 402L382 405L383 405L382 402z"/>
<path style="fill:#f7972c; stroke:none;" d="M481 402L482 403L481 402M443 403L444 404L443 403M482 403L483 404L482 403M483 404L484 405L483 404M484 405L485 406L484 405M485 406L486 407L485 406z"/>
<path style="fill:#5c9ece; stroke:none;" d="M243 407L244 408L243 407M442 407L442 465L443 465L443 426L442 407M383 408L383 411L384 411L383 408z"/>
<path style="fill:#f7972c; stroke:none;" d="M487 409L488 410L487 409z"/>
<path style="fill:#5c9ece; stroke:none;" d="M241 410L242 411L241 410z"/>
<path style="fill:#f7972c; stroke:none;" d="M488 411L489 412L488 411z"/>
<path style="fill:#5c9ece; stroke:none;" d="M240 412L241 413L240 412M239 413L240 414L239 413M384 414L384 417L385 417L384 414z"/>
<path style="fill:#f7972c; stroke:none;" d="M489.333 414.667L489.667 415.333L489.333 414.667z"/>
<path style="fill:#5c9ece; stroke:none;" d="M237 416L238 417L237 416M236 417L237 418L236 417M234 420L235 421L234 420M385 420L385 423L386 423L385 420z"/>
<path style="fill:#f7972c; stroke:none;" d="M490 420L490 452L491 452L490 420z"/>
<path style="fill:#5c9ece; stroke:none;" d="M233 421L234 422L233 421M232 422L233 423L232 422M386 425L386 428L387 428L386 425M387 431L387 434L388 434L387 431M221 433L222 434L221 433M220 434L221 435L220 434M219 435L220 436L219 435M388 437L388 440L389 440L388 437M234 438L235 439L234 438M237 439L238 440L237 439M239 440L240 441L239 440M241 441L242 442L241 441M389 443L389 446L390 446L389 443M248 448L249 449L248 448M390 449L391 450L390 449M250 450L250 451L390 451C379.02 446.393 359.944 450 348 450L250 450M124 491L143 491C146.095 481.977 153.945 483 162 483L213 483C219.399 483 232.416 485.534 235.397 477.956C237.496 472.618 237.849 456.725 231.891 454.009C221.544 449.293 202.312 453 191 453L107 453C96.4711 453 79.8279 449.826 70.0193 453.742C63.2538 456.444 63.2803 472.049 65.6034 477.956C68.0152 484.088 75.7041 483 81 483C92.5055 483 119.423 477.659 124 491z"/>
<path style="fill:#f7972c; stroke:none;" d="M489.333 456.667L489.667 457.333L489.333 456.667M488 459L489 460L488 459M487 461L488 462L487 461M486 463L487 464L486 463M485 464L486 465L485 464z"/>
<path style="fill:#5c9ece; stroke:none;" d="M443 468L444 469L443 468z"/>
<path style="fill:#f7972c; stroke:none;" d="M480 469L481 470L480 469M479 470L480 471L479 470z"/>
<path style="fill:#5c9ece; stroke:none;" d="M445 471L446 472L445 471z"/>
<path style="fill:#f7972c; stroke:none;" d="M477 471L478 472L477 471M475 472L476 473L475 472z"/>
<path style="fill:#5c9ece; stroke:none;" d="M448 473L449 474L448 473z"/>
<path style="fill:#f7972c; stroke:none;" d="M472 473L473 474L472 473z"/>
<path style="fill:#5c9ece; stroke:none;" d="M451 474L451 475L461 475L451 474z"/>
</svg>
